<svg width="16" height="16" viewBox="0 0 16 16" fill="none" xmlns="http://www.w3.org/2000/svg">
<path d="M7.33325 8C7.33325 8.36794 7.63198 8.66667 7.99992 8.66667C8.36786 8.66667 8.66659 8.36794 8.66659 8C8.66659 7.63206 8.36786 7.33333 7.99992 7.33333C7.63198 7.33333 7.33325 7.63206 7.33325 8V8" stroke="black" stroke-width="1.33333" stroke-linecap="round" stroke-linejoin="round"/>
<path d="M12 8C12 8.36794 12.2987 8.66667 12.6667 8.66667C13.0346 8.66667 13.3333 8.36794 13.3333 8C13.3333 7.63206 13.0346 7.33333 12.6667 7.33333C12.2987 7.33333 12 7.63206 12 8V8" stroke="black" stroke-width="1.33333" stroke-linecap="round" stroke-linejoin="round"/>
<path d="M2.66675 8C2.66675 8.36794 2.96547 8.66667 3.33341 8.66667C3.70136 8.66667 4.00008 8.36794 4.00008 8C4.00008 7.63206 3.70136 7.33333 3.33341 7.33333C2.96547 7.33333 2.66675 7.63206 2.66675 8V8" stroke="black" stroke-width="1.33333" stroke-linecap="round" stroke-linejoin="round"/>
</svg>
