<svg width="20" height="20" viewBox="0 0 20 20" fill="none" xmlns="http://www.w3.org/2000/svg">
<path d="M13.3333 17.5V15.8333C13.3333 13.9924 11.8409 12.5 9.99996 12.5H4.99996C3.15901 12.5 1.66663 13.9924 1.66663 15.8333V17.5" stroke="#171717" stroke-width="1.66667" stroke-linecap="round" stroke-linejoin="round"/>
<path d="M13.3334 2.60666C14.8035 2.9878 15.8302 4.31455 15.8302 5.83333C15.8302 7.3521 14.8035 8.67886 13.3334 9.05999" stroke="#171717" stroke-width="1.66667" stroke-linecap="round" stroke-linejoin="round"/>
<path d="M18.3334 17.5V15.8333C18.3322 14.3143 17.3042 12.9881 15.8334 12.6083" stroke="#171717" stroke-width="1.66667" stroke-linecap="round" stroke-linejoin="round"/>
<path d="M4.16663 5.83333C4.16663 7.67305 5.66024 9.16667 7.49996 9.16667C9.33968 9.16667 10.8333 7.67305 10.8333 5.83333C10.8333 3.99362 9.33968 2.5 7.49996 2.5C5.66024 2.5 4.16663 3.99362 4.16663 5.83333V5.83333" stroke="#171717" stroke-width="1.66667" stroke-linecap="round" stroke-linejoin="round"/>
</svg>
