<svg width="16" height="16" viewBox="0 0 16 16" fill="none" xmlns="http://www.w3.org/2000/svg">
<path d="M2.66667 2H6C6.36794 2 6.66667 2.29872 6.66667 2.66667V7.33333C6.66667 7.70128 6.36794 8 6 8H2.66667C2.29872 8 2 7.70128 2 7.33333V2.66667C2 2.29872 2.29872 2 2.66667 2V2" stroke="#FAFAFA" stroke-width="1.33333" stroke-linecap="round" stroke-linejoin="round"/>
<path d="M10 2H13.3334C13.7013 2 14 2.29872 14 2.66667V4.66667C14 5.03461 13.7013 5.33333 13.3334 5.33333H10C9.6321 5.33333 9.33337 5.03461 9.33337 4.66667V2.66667C9.33337 2.29872 9.6321 2 10 2V2" stroke="#FAFAFA" stroke-width="1.33333" stroke-linecap="round" stroke-linejoin="round"/>
<path d="M10 8H13.3334C13.7013 8 14 8.29872 14 8.66667V13.3333C14 13.7013 13.7013 14 13.3334 14H10C9.6321 14 9.33337 13.7013 9.33337 13.3333V8.66667C9.33337 8.29872 9.6321 8 10 8V8" stroke="#FAFAFA" stroke-width="1.33333" stroke-linecap="round" stroke-linejoin="round"/>
<path d="M2.66667 10.6667H6C6.36794 10.6667 6.66667 10.9654 6.66667 11.3333V13.3333C6.66667 13.7013 6.36794 14 6 14H2.66667C2.29872 14 2 13.7013 2 13.3333V11.3333C2 10.9654 2.29872 10.6667 2.66667 10.6667V10.6667" stroke="#FAFAFA" stroke-width="1.33333" stroke-linecap="round" stroke-linejoin="round"/>
</svg>
