<svg width="16" height="16" viewBox="0 0 16 16" fill="none" xmlns="http://www.w3.org/2000/svg">
<path d="M6.44731 2.75734C6.52342 1.95657 7.19593 1.34496 8.00031 1.34496C8.80469 1.34496 9.47719 1.95657 9.55331 2.75734C9.59811 3.26397 9.88708 3.71694 10.3276 3.97112C10.7682 4.2253 11.3049 4.24877 11.766 4.034C12.4968 3.7022 13.3601 3.97909 13.7617 4.67407C14.1632 5.36905 13.9718 6.25528 13.3193 6.72267C12.9031 7.0147 12.6553 7.49124 12.6553 7.99967C12.6553 8.5081 12.9031 8.98464 13.3193 9.27667C13.9718 9.74406 14.1632 10.6303 13.7617 11.3253C13.3601 12.0202 12.4968 12.2971 11.766 11.9653C11.3049 11.7506 10.7682 11.774 10.3276 12.0282C9.88708 12.2824 9.59811 12.7354 9.55331 13.242C9.47719 14.0428 8.80469 14.6544 8.00031 14.6544C7.19593 14.6544 6.52342 14.0428 6.44731 13.242C6.40258 12.7352 6.11352 12.282 5.6728 12.0278C5.23207 11.7736 4.69507 11.7503 4.23397 11.9653C3.50314 12.2971 2.63981 12.0202 2.2383 11.3253C1.83678 10.6303 2.02814 9.74406 2.68064 9.27667C3.09684 8.98464 3.34461 8.5081 3.34461 7.99967C3.34461 7.49124 3.09684 7.0147 2.68064 6.72267C2.02909 6.25507 1.83824 5.36964 2.2393 4.67515C2.64036 3.98066 3.50265 3.7034 4.23331 4.034C4.69434 4.24877 5.23113 4.2253 5.67167 3.97112C6.1122 3.71694 6.40117 3.26397 6.44597 2.75734" stroke="#0A0A0A" stroke-width="1.33333" stroke-linecap="round" stroke-linejoin="round"/>
<path d="M6 8C6 9.10383 6.89617 10 8 10C9.10383 10 10 9.10383 10 8C10 6.89617 9.10383 6 8 6C6.89617 6 6 6.89617 6 8V8" stroke="#0A0A0A" stroke-width="1.33333" stroke-linecap="round" stroke-linejoin="round"/>
</svg>
