<svg width="16" height="16" viewBox="0 0 16 16" fill="none" xmlns="http://www.w3.org/2000/svg">
<path d="M7.33337 7.99998C7.33337 8.36792 7.6321 8.66665 8.00004 8.66665C8.36798 8.66665 8.66671 8.36792 8.66671 7.99998C8.66671 7.63204 8.36798 7.33331 8.00004 7.33331C7.6321 7.33331 7.33337 7.63204 7.33337 7.99998V7.99998" stroke="black" stroke-width="1.33333" stroke-linecap="round" stroke-linejoin="round"/>
<path d="M12 7.99998C12 8.36792 12.2987 8.66665 12.6667 8.66665C13.0346 8.66665 13.3333 8.36792 13.3333 7.99998C13.3333 7.63204 13.0346 7.33331 12.6667 7.33331C12.2987 7.33331 12 7.63204 12 7.99998V7.99998" stroke="black" stroke-width="1.33333" stroke-linecap="round" stroke-linejoin="round"/>
<path d="M2.66663 7.99998C2.66663 8.36792 2.96535 8.66665 3.33329 8.66665C3.70124 8.66665 3.99996 8.36792 3.99996 7.99998C3.99996 7.63204 3.70124 7.33331 3.33329 7.33331C2.96535 7.33331 2.66663 7.63204 2.66663 7.99998V7.99998" stroke="black" stroke-width="1.33333" stroke-linecap="round" stroke-linejoin="round"/>
</svg>
