<svg width="16" height="16" viewBox="0 0 16 16" fill="none" xmlns="http://www.w3.org/2000/svg">
<path d="M10.1333 2C10.485 2.00501 10.8205 2.14878 11.0667 2.4L13.6 4.93333C13.8512 5.17951 13.995 5.51497 14 5.86667V12.6667C14 13.4026 13.4026 14 12.6667 14H3.33333C2.59745 14 2 13.4026 2 12.6667V3.33333C2 2.59745 2.59745 2 3.33333 2H10.1333" stroke="#FAFAFA" stroke-width="1.33333" stroke-linecap="round" stroke-linejoin="round"/>
<path d="M11.3333 14.0001V9.33341C11.3333 8.96547 11.0346 8.66675 10.6666 8.66675H5.33329C4.96535 8.66675 4.66663 8.96547 4.66663 9.33341V14.0001" stroke="#FAFAFA" stroke-width="1.33333" stroke-linecap="round" stroke-linejoin="round"/>
<path d="M4.66663 2V4.66667C4.66663 5.03461 4.96535 5.33333 5.33329 5.33333H9.99996" stroke="#FAFAFA" stroke-width="1.33333" stroke-linecap="round" stroke-linejoin="round"/>
</svg>
