<svg width="16" height="16" viewBox="0 0 16 16" fill="none" xmlns="http://www.w3.org/2000/svg">
<path d="M7.33337 8.00004C7.33337 8.36798 7.6321 8.66671 8.00004 8.66671C8.36798 8.66671 8.66671 8.36798 8.66671 8.00004C8.66671 7.6321 8.36798 7.33337 8.00004 7.33337C7.6321 7.33337 7.33337 7.6321 7.33337 8.00004V8.00004" stroke="black" stroke-width="1.33333" stroke-linecap="round" stroke-linejoin="round"/>
<path d="M12 8.00004C12 8.36798 12.2987 8.66671 12.6667 8.66671C13.0346 8.66671 13.3333 8.36798 13.3333 8.00004C13.3333 7.6321 13.0346 7.33337 12.6667 7.33337C12.2987 7.33337 12 7.6321 12 8.00004V8.00004" stroke="black" stroke-width="1.33333" stroke-linecap="round" stroke-linejoin="round"/>
<path d="M2.66663 8.00004C2.66663 8.36798 2.96535 8.66671 3.33329 8.66671C3.70124 8.66671 3.99996 8.36798 3.99996 8.00004C3.99996 7.6321 3.70124 7.33337 3.33329 7.33337C2.96535 7.33337 2.66663 7.6321 2.66663 8.00004V8.00004" stroke="black" stroke-width="1.33333" stroke-linecap="round" stroke-linejoin="round"/>
</svg>
