<svg width="36" height="36" viewBox="0 0 36 36" fill="none" xmlns="http://www.w3.org/2000/svg">
<rect width="36" height="36" rx="8" fill="#171717"/>
<path d="M18 13.8333V25.5" stroke="#FAFAFA" stroke-width="1.66667" stroke-linecap="round" stroke-linejoin="round"/>
<path d="M10.5 23C10.0398 23 9.66666 22.6269 9.66666 22.1667V11.3333C9.66666 10.8731 10.0398 10.5 10.5 10.5H14.6667C16.5076 10.5 18 11.9924 18 13.8333C18 11.9924 19.4924 10.5 21.3333 10.5H25.5C25.9602 10.5 26.3333 10.8731 26.3333 11.3333V22.1667C26.3333 22.6269 25.9602 23 25.5 23H20.5C19.1193 23 18 24.1193 18 25.5C18 24.1193 16.8807 23 15.5 23H10.5" stroke="#FAFAFA" stroke-width="1.66667" stroke-linecap="round" stroke-linejoin="round"/>
</svg>
